<svg width="100" height="100" viewBox="0 0 100 100" fill="none" xmlns="http://www.w3.org/2000/svg">
<path d="M42.79 62.2257V99.8433H57.5235V62.2257H42.79ZM28.8401 85.1097C21.1599 85.1097 14.8903 78.8401 14.8903 71.1599V62.2257H0.15674V71.1599C0.15674 86.9906 13.0094 99.8433 28.8401 99.8433H37.7743V85.1097H28.8401ZM28.8401 0C13.0094 0 0.15674 12.8527 0.15674 28.6834V37.6176H14.8903V28.6834C14.8903 21.0031 21.1599 14.7335 28.8401 14.7335C36.5204 14.7335 42.79 21.0031 42.79 28.6834V37.6176H57.5235V28.6834C57.5235 12.8527 44.6708 0 28.8401 0ZM42.79 62.2257V99.8433H57.5235V62.2257H42.79ZM100 71.3166C100 87.1473 87.1473 100 71.3166 100H62.2257V85.2665H71.3166C89.8119 84.4828 89.8119 58.1505 71.3166 57.3668H0V42.6332H71.3166C87.1473 42.6332 100 55.4859 100 71.3166Z" fill="#767676" fill-opacity="0.5"/>
</svg>
